<svg xmlns="http://www.w3.org/2000/svg" xmlns:xlink="http://www.w3.org/1999/xlink" width="500" zoomAndPan="magnify" viewBox="0 0 375 374.999991" height="500" preserveAspectRatio="xMidYMid meet" version="1.0"><defs><g/><clipPath id="d8090f0df0"><path d="M 56.488281 151.464844 L 318.167969 151.464844 L 318.167969 223.464844 L 56.488281 223.464844 Z M 56.488281 151.464844 " clip-rule="nonzero"/></clipPath><clipPath id="70e6c38c0f"><path d="M 63.558594 158.238281 L 187.332031 158.238281 L 187.332031 216.761719 L 63.558594 216.761719 Z M 63.558594 158.238281 " clip-rule="nonzero"/></clipPath></defs><rect x="-37.5" width="450" fill="#ffffff" y="-37.499999" height="449.999989" fill-opacity="1"/><rect x="-37.5" width="450" fill="#ffffff" y="-37.499999" height="449.999989" fill-opacity="1"/><g clip-path="url(#d8090f0df0)"><path stroke-linecap="butt" transform="matrix(0.75, 0, 0, 0.75, 56.489269, 151.465449)" fill="none" stroke-linejoin="miter" d="M -0.00131672 -0.000807338 L 348.904956 -0.000807338 L 348.904956 96.092949 L -0.00131672 96.092949 Z M -0.00131672 -0.000807338 " stroke="#000000" stroke-width="6" stroke-opacity="1" stroke-miterlimit="4"/></g><g clip-path="url(#70e6c38c0f)"><path fill="#000000" d="M 63.558594 158.238281 L 187.332031 158.238281 L 187.332031 216.761719 L 63.558594 216.761719 Z M 63.558594 158.238281 " fill-opacity="1" fill-rule="nonzero"/></g><g fill="#ffffff" fill-opacity="1"><g transform="translate(75.980763, 196.618259)"><g><path d="M 7.527344 0 L 13.144531 0 L 20.53125 -19.660156 L 14.492188 -19.660156 L 12.191406 -13.171875 L 10.363281 -8.0625 L 8.539062 -13.171875 L 6.234375 -19.660156 L 0.140625 -19.660156 Z M 7.527344 0 "/></g></g></g><g fill="#ffffff" fill-opacity="1"><g transform="translate(96.646227, 196.618259)"><g><path d="M 2.078125 0 L 15.871094 0 L 15.871094 -4.632812 L 7.695312 -4.632812 L 7.695312 -7.667969 L 14.800781 -7.667969 L 14.800781 -12.21875 L 7.695312 -12.21875 L 7.695312 -15.082031 L 15.558594 -15.082031 L 15.558594 -19.660156 L 2.078125 -19.660156 Z M 2.078125 0 "/></g></g></g><g fill="#ffffff" fill-opacity="1"><g transform="translate(113.773855, 196.618259)"><g><path d="M 2.078125 0 L 7.753906 0 L 7.753906 -5.589844 L 9.886719 -5.589844 L 12.695312 0 L 19.128906 0 L 15.503906 -6.628906 C 17.582031 -7.78125 18.761719 -9.859375 18.761719 -12.609375 C 18.761719 -16.964844 15.8125 -19.660156 11.039062 -19.660156 L 2.078125 -19.660156 Z M 7.640625 -10.113281 L 7.640625 -15.027344 L 10.28125 -15.027344 C 12.078125 -15.027344 13.0625 -14.15625 13.0625 -12.582031 C 13.0625 -11.011719 12.078125 -10.113281 10.28125 -10.113281 Z M 7.640625 -10.113281 "/></g></g></g><g fill="#ffffff" fill-opacity="1"><g transform="translate(133.99007, 196.618259)"><g><path d="M 2.078125 0 L 12.160156 0 C 16.148438 0 18.929688 -2.246094 18.929688 -5.476562 C 18.929688 -7.554688 17.808594 -9.242188 15.953125 -10.054688 C 17.46875 -10.925781 18.339844 -12.5 18.339844 -14.378906 C 18.339844 -17.609375 15.757812 -19.660156 11.65625 -19.660156 L 2.078125 -19.660156 Z M 7.640625 -4.214844 L 7.640625 -7.894531 L 11.066406 -7.894531 C 12.414062 -7.894531 13.171875 -7.21875 13.171875 -6.066406 C 13.171875 -4.886719 12.414062 -4.214844 11.066406 -4.214844 Z M 7.640625 -11.9375 L 7.640625 -15.476562 L 10.589844 -15.476562 C 11.910156 -15.476562 12.640625 -14.832031 12.640625 -13.707031 C 12.640625 -12.554688 11.910156 -11.9375 10.589844 -11.9375 Z M 7.640625 -11.9375 "/></g></g></g><g fill="#ffffff" fill-opacity="1"><g transform="translate(153.728964, 196.618259)"><g><path d="M 0.140625 0 L 6.152344 0 L 7.21875 -2.78125 L 13.929688 -2.78125 L 15 0 L 21.039062 0 L 13.398438 -19.660156 L 7.78125 -19.660156 Z M 8.398438 -6.9375 L 10.589844 -13.03125 L 12.78125 -6.9375 Z M 8.398438 -6.9375 "/></g></g></g><g fill="#000000" fill-opacity="1"><g transform="translate(209.071206, 195.903371)"><g><path d="M 7.433594 0 L 12.980469 0 L 20.273438 -19.414062 L 14.3125 -19.414062 L 12.035156 -13.007812 L 10.234375 -7.960938 L 8.429688 -13.007812 L 6.15625 -19.414062 L 0.140625 -19.414062 Z M 7.433594 0 "/></g></g></g><g fill="#000000" fill-opacity="1"><g transform="translate(229.477931, 195.903371)"><g><path d="M 2.050781 0 L 7.65625 0 L 7.65625 -19.414062 L 2.050781 -19.414062 Z M 2.050781 0 "/></g></g></g><g fill="#000000" fill-opacity="1"><g transform="translate(239.182211, 195.903371)"><g><path d="M 9.015625 0.417969 C 13.839844 0.417969 16.695312 -1.859375 16.695312 -5.6875 C 16.695312 -8.902344 14.617188 -10.789062 9.902344 -11.84375 C 7.40625 -12.398438 6.488281 -13.007812 6.488281 -14.007812 C 6.488281 -14.949219 7.320312 -15.53125 8.625 -15.53125 C 10.179688 -15.53125 11.066406 -14.726562 11.066406 -13.257812 L 16.335938 -13.257812 C 16.335938 -17.25 13.285156 -19.832031 8.515625 -19.832031 C 3.9375 -19.832031 1.109375 -17.554688 1.109375 -13.894531 C 1.109375 -10.621094 3.246094 -8.597656 7.628906 -7.765625 C 9.984375 -7.292969 11.121094 -6.574219 11.121094 -5.464844 C 11.121094 -4.492188 10.289062 -3.9375 8.929688 -3.9375 C 7.320312 -3.9375 6.378906 -4.796875 6.378906 -6.296875 L 0.972656 -6.296875 C 0.972656 -2.109375 3.964844 0.417969 9.015625 0.417969 Z M 9.015625 0.417969 "/></g></g></g><g fill="#000000" fill-opacity="1"><g transform="translate(256.899461, 195.903371)"><g><path d="M 6.683594 0 L 12.257812 0 L 12.257812 -14.226562 L 18.167969 -14.226562 L 18.167969 -19.414062 L 0.777344 -19.414062 L 0.777344 -14.226562 L 6.683594 -14.226562 Z M 6.683594 0 "/></g></g></g><g fill="#000000" fill-opacity="1"><g transform="translate(275.836685, 195.903371)"><g><path d="M 0.140625 0 L 6.074219 0 L 7.128906 -2.746094 L 13.757812 -2.746094 L 14.808594 0 L 20.773438 0 L 13.230469 -19.414062 L 7.683594 -19.414062 Z M 8.292969 -6.851562 L 10.457031 -12.867188 L 12.621094 -6.851562 Z M 8.292969 -6.851562 "/></g></g></g></svg>